<svg xmlns="http://www.w3.org/2000/svg" width="124.331mm" height="86.787003mm" viewBox="0 0 124.331 86.787003"><path d="M20.854 42.601c0 22.889 18.806 41.512 41.923 41.512 23.114 0 41.919-18.623 41.919-41.512 0-22.884-18.805-41.507-41.92-41.507-23.116 0-41.922 18.623-41.922 41.507m-1.972.79C18.882 19.467 38.542 0 62.71 0c24.165 0 43.828 19.466 43.828 43.392 0 23.929-19.663 43.395-43.828 43.395-24.168 0-43.828-19.466-43.828-43.395" style="fill:#deddde;fill-opacity:1;fill-rule:nonzero;stroke:none;stroke-width:.0352778"/><path d="m59.119 61.454.283-.102c-.642-.223-1.908-.999-2.909-1.747l-.498.201c.41.388.947.798 1.523 1.168a30.225 30.225 0 0 1-2.284-.86c-.48-.653-.757-2.022-.744-2.594l-.641.19c.031.565.265 1.401.538 2.03a30.298 30.298 0 0 1-1.876-.939 6.087 6.087 0 0 1-.094-.751l-.575.2.012.184c-8.39-4.836-14.324-13.54-15.122-23.837a29.896 29.896 0 0 1 3.82-17.089c-4.537 5.75-7.011 13.124-6.41 20.952A29.862 29.862 0 0 0 38.49 51.85l1.832.237-.736 1.414c.33.462.67.917 1.025 1.362-.401-.5-.786-1.009-1.156-1.535l.47-1.167-1.299-.078a29.89 29.89 0 0 1-4.657-16.048c0-16.697 13.716-30.279 30.585-30.279 16.859 0 30.581 13.582 30.581 30.28a29.87 29.87 0 0 1-4.14 15.2 30.632 30.632 0 0 1-21.437 11.194 30.546 30.546 0 0 1-10.44-.977" style="fill:#fff;fill-opacity:1;fill-rule:nonzero;stroke:none;stroke-width:.0352778"/><path d="M78.304 15.857h-.583l-1.858 5.197h1.163l.364-1.013h1.824l.365 1.013h1.412l-1.856-5.197Zm0 3.433h-.648l.648-1.796.64 1.796h-.64M73.99 21.054h1.415v-5.197H73.99v5.197M72.857 20.232l-1.464-2.092 1.78-2.283h-1.465l-1.606 2.011v-2.01h-1.415v5.196h1.415V18.64l1.386 1.968s.348.445.71.445h1.492s-.157.01-.833-.822" style="fill:#ed1c24;fill-opacity:1;fill-rule:evenodd;stroke:none;stroke-width:.0352778"/><path d="M30.941 37.469c0 18.436 14.865 33.44 33.138 33.44 18.268 0 33.137-15.004 33.137-33.44 0-18.44-14.869-33.444-33.137-33.444-18.273 0-33.138 15.004-33.138 33.444M20.854 42.6c0-22.884 18.806-41.507 41.923-41.507 23.114 0 41.919 18.623 41.919 41.507 0 22.889-18.805 41.512-41.92 41.512-23.116 0-41.922-18.623-41.922-41.512" style="fill:#151a2b;fill-opacity:1;fill-rule:nonzero;stroke:none;stroke-width:.0352778"/><path d="M41.88 16.454s-.068-.473-.095-.798c.137-.155.267-.303.397-.458-.04.183-.171.871-.077 1.026l-.225.23M42.921 15.628s-.095-.53-.068-1.189c.168-.18.343-.35.52-.525-.143.43-.128.9-.177 1.375l-.275.34M44.83 14.002l-.614.483s.1-1.005.285-1.288c.022-.187.006-.292.064-.416.255-.226.511-.448.772-.667-.082.187-.248.586-.167.808-.344.353-.315.752-.34 1.08M46.628 12.898l-.635.462c-.08-.127.077-1.105.358-1.542-.033-.233.041-.423.097-.582.246-.183.488-.356.734-.54-.029.092-.203.568-.15.879-.367.37-.406.91-.404 1.323M48.429 9.881c-.113.215-.462.466-.315.755-.265.346-.414 1.126-.307 1.658l.62-.543c-.015-.395.015-1.044.355-1.46-.157-.205.509-.879.577-.981l-.93.571M50.4 8.996c-.112.226-.034.236-.087.451-.254.346-.578 1.108-.612 1.69l.852-.3a2.375 2.375 0 0 1 .496-1.39c-.153-.204.274-.86.331-.96l-.98.509M53.885 7.55c-.088.296.093.515.23.807-.456.459-1.205 1.09-1.525 1.94l-.925.255c.4-.928 1.055-1.796 1.491-2.177-.112-.212-.13-.572-.13-.572l.859-.254M56.672 7.03c-.083.3.18.562.314.851-.533.3-1.34 1.154-1.841 2.19l-1.037.11c.866-1.517 1.474-1.997 2.02-2.318-.182-.314-.199-.638-.199-.638l.743-.194M59.562 6.88c-.019.433.225.528.364.81-.532.304-1.584.935-2.094 1.976l-1.032.106c1.052-1.485 1.755-2.233 2.215-2.13-.187-.308-.294-.742-.294-.742l.84-.02M62.211 6.83c.036.338.416.74.547 1.03-.543.303-1.383.596-1.875 1.64h-1.13c.823-1.224 1.632-1.852 2.103-1.75-.302-.37-.517-1.04-.517-1.04l.872.12M64.876 6.978c-.015.43.414.748.542 1.03-.526.303-1.412.706-1.92 1.746l-1.08-.046c.79-1.174 1.625-1.83 2.081-1.721-.4-.487-.568-1.175-.568-1.175l.945.166M67.896 7.401c-.022.427.354.836.494 1.13-.538.295-1.29.606-1.79 1.647l-.984-.113c1.091-1.404 1.478-1.715 1.936-1.609-.326-.48-.595-1.284-.595-1.284l.94.23M70.697 7.828c-.023.445.353.843.488 1.14-.532.292-1.461.772-1.964 1.81l-.963-.198c1.054-1.358 1.62-1.895 2.09-1.789-.185-.31-.547-1.252-.547-1.252l.896.29M73.546 8.52c.113.5.56 1.072.702 1.365-.54.293-1.662.607-2.15 1.64l-.81-.243c1.054-1.334 1.373-1.454 2.06-1.542-.183-.32-.752-1.545-.752-1.545l.95.325M76.557 9.373c.16.872.521 1.387.62 1.676-.53-.039-1.392.455-1.961 1.46l-.848-.303c.839-1.104 1.403-1.503 1.869-1.45-.185-.331-.584-1.721-.584-1.721l.904.338M79.536 10.583c-.054.357.56 1.415.698 1.704-.076.01-.252-.024-.442 0-.344.043-1.002.36-1.67 1.447l-.77-.343c.846-1.206 1.444-1.418 1.642-1.453.166-.042.37.018.492.05-.436-.498-.776-1.793-.776-1.793l.826.388M84.656 13.303c-.158.43-.213 1.027-.08 1.32-.538.292-.925.917-.99 1.926l-.765-.448c.17-1.179.574-1.602 1.023-1.82-.193-.318.055-1.45.055-1.45l.757.472M82.183 11.896c-.01.434.203 1.23.354 1.513-.499 0-.846.113-1.485 1.729l-.766-.41c1.06-1.739 1.214-1.619 1.488-1.534-.199-.321-.457-1.792-.457-1.792l.866.494M86.622 14.806c-.164.48-.128.875.012 1.171-.302-.056-.353.283-.418.727-.045.402-.02.73-.049 1.203l-.769-.445c-.025-1.086.07-2.08.525-1.972-.19-.317-.052-1.35-.052-1.35l.75.666M88.354 16.14c-.08.423-.042.8.122 1.107-.296.342-.366.748-.275 1.884l-.692-.466c-.208-1.213.097-1.587.29-1.876-.212-.328-.16-1.179-.16-1.179l.715.53M90.086 18.302c.24 1.076.03 1.598-.04 2.258l-.694-.59c.144-.535.341-1.69.025-2.737l.709 1.07M91.413 21.911s-.04-.808-.136-1.492c.155.31.303.628.448.945 0 .31-.021.681-.086.946l-.226-.399M64.181 56.882c.184-.325-.1-2.639-.3-3.415l-.953.547s.578 1.718.646 2.173c.074.455-.052.847-.298 1.051l.905-.356M61.105 55.153l-.731.378c.39 1.361.379 1.958.4 2.328.007.236-.638.378-.596.367.545.17 2.58 1.376 3.047 1.686l.82-.402c-.88-.603-2.723-1.482-3.18-1.478-.45.007-.026-.014-.026-.014l.407.077c.568-.444-.103-2.55-.14-2.942M58.391 56.286l-.597.247c.023.508.176 1.17.715 2.35l.64-.216c-.621-1.358-.815-2.156-.758-2.381" style="fill:#bdbcbc;fill-opacity:1;fill-rule:nonzero;stroke:none;stroke-width:.0352778"/><path d="m61.341 60.614-.71.272c-.919-.427-1.895-1.058-2.725-1.732l.61-.3c1.143.783 2.205 1.563 2.825 1.76M91.621 44.383l-.582-.13c-.18.666-.278 1.657-.994 2.349.299.656.506 1.192.132 2l.531-.017c.17-.879.079-1.306-.184-1.905.477-.512 1.02-1.242 1.097-2.297M90.188 44.04l-.691-.102c-.18.681-.415 1.74-1.13 2.442.599.631.58 1.376.46 2.116l.63.029c.172-.879-.103-1.49-.411-2.089.48-.515.91-1.351 1.142-2.395M91.525 46.729c.717-.702.616-1.38.79-2.057l.223.057c-.044.494-.094.98-.166 1.47-.113.234-.255.42-.446.615a3.1 3.1 0 0 1 .133 1.181c-.05.258-.12.515-.175.77l-.37.014c.172-.575.143-1.464.011-2.05M86.996 46.274c.645-.83 1.033-1.545 1.273-2.494l-.699-.021c-.181.67-.618 1.781-1.331 2.483l.757.032" style="fill:#bdbcbc;fill-opacity:1;fill-rule:nonzero;stroke:none;stroke-width:.0352778"/><path d="M86.051 46.242c.46.455.907 1.609.8 2.268l.715-.12c.021-1.139-.286-1.432-.684-2.137l-.83-.01M85.313 46.37c.428-.703.872-1.504.939-2.559l-.687.029c-.186.67-.343 1.873-.99 2.575l.738-.046" style="fill:#bdbcbc;fill-opacity:1;fill-rule:nonzero;stroke:none;stroke-width:.0352778"/><path d="M84.48 46.411c.465.456.943 1.68.831 2.332l.713-.12c.165-.871-.34-1.562-.808-2.254l-.736.042M83.097 46.57c.377.021.69-1.601.794-2.593l-.77.155c-.225 1.457.196 1.323-.702 2.713l.679-.275" style="fill:#bdbcbc;fill-opacity:1;fill-rule:nonzero;stroke:none;stroke-width:.0352778"/><path d="M82.181 46.926c1.065 1.02 1.447 1.595 1.302 2.11l.712-.166c.177-.652-.85-1.619-1.337-2.215l-.677.271M79.761 47.325c.63.483 1.511 1.806 1.581 2.494l.678-.314c-.051-.931-1.155-2.07-1.464-2.44l-.795.26M78.436 48.323c.38-.567.385-1.873.283-2.952l-.802.395c.166.744.21 2.06-.28 2.826l.8-.269" style="fill:#bdbcbc;fill-opacity:1;fill-rule:nonzero;stroke:none;stroke-width:.0352778"/><path d="M80.72 47.032c.377-.568.385-1.88.283-2.949l-.806.395c.174.741.216 2.053-.27 2.822l.793-.268M77.406 48.645c.631.486 1.756 1.435 1.817 2.116l.803-.391c-.389-.932-.94-1.203-1.83-1.987l-.79.262M75.914 49.66c.347-.627.217-2.017.006-3.143l-.803.501c.25.766.42 2.152-.015 3.006l.812-.363" style="fill:#bdbcbc;fill-opacity:1;fill-rule:nonzero;stroke:none;stroke-width:.0352778"/><path d="M74.866 50.112c.713.448 1.997 1.337 2.127 2.053l.806-.5c-.493-.94-1.107-1.175-2.119-1.902l-.814.35M73.165 51.237c.301-.649.068-2.017-.211-3.125l-.781.554c.312.744.582 2.113.206 2.998l.786-.427" style="fill:#bdbcbc;fill-opacity:1;fill-rule:nonzero;stroke:none;stroke-width:.0352778"/><path d="M72.148 51.774c.746.391 2.084 1.178 2.275 1.883l.763-.553c-.568-.896-1.196-1.09-2.256-1.757l-.782.427M70.435 52.885c.305-.653.075-2.025-.215-3.133l-.77.554c.306.744.579 2.12.205 3.002l.78-.423" style="fill:#bdbcbc;fill-opacity:1;fill-rule:nonzero;stroke:none;stroke-width:.0352778"/><path d="M69.427 53.407c.744.399 2.078 1.192 2.269 1.894l.762-.55c-.567-.903-1.187-1.09-2.253-1.757l-.778.413M67.408 54.808c.3-.646.076-2.025-.217-3.133l-.766.557c.305.738.574 2.113.203 2.999l.78-.423" style="fill:#bdbcbc;fill-opacity:1;fill-rule:nonzero;stroke:none;stroke-width:.0352778"/><path d="M66.393 55.333c.753.392 2.09 1.193 2.267 1.895l.773-.554c-.57-.907-1.187-1.094-2.26-1.754l-.78.413M63.296 57.291c.742.399 2.086 1.192 2.273 1.902l.762-.565c-.562-.9-1.187-1.086-2.25-1.75l-.785.413M57.518 60.974c-.576-.37-1.113-.78-1.523-1.168l.498-.2c1 .747 2.267 1.523 2.909 1.746l-.283.102a30.66 30.66 0 0 1-1.601-.48M54.387 59.74c-.273-.629-.507-1.465-.538-2.03l.641-.19c-.013.572.264 1.94.744 2.593-.284-.12-.566-.243-.847-.374" style="fill:#bdbcbc;fill-opacity:1;fill-rule:nonzero;stroke:none;stroke-width:.0352778"/><path d="m56.42 57.044-.635.19c.041.734.421 1.94.791 2.537l.587-.116c-.473-.656-.75-2.036-.744-2.61M51.854 58.434a5.104 5.104 0 0 1-.012-.183l.575-.201c.004.144.035.42.094.751-.22-.12-.44-.243-.657-.367" style="fill:#bdbcbc;fill-opacity:1;fill-rule:nonzero;stroke:none;stroke-width:.0352778"/><path d="M66.968 66.294a30.654 30.654 0 0 0 24.346-15.452c-.105.13-.211.265-.318.395a29.87 29.87 0 0 0 4.14-15.2c0-16.698-13.722-30.28-30.581-30.28-16.869 0-30.585 13.582-30.585 30.28a29.89 29.89 0 0 0 4.657 16.047l1.3.078-.47 1.167c.369.526.754 1.034 1.155 1.535a30.656 30.656 0 0 0 26.356 11.43M30.94 37.469c0-18.44 14.865-33.444 33.138-33.444 18.268 0 33.137 15.004 33.137 33.444 0 18.436-14.869 33.44-33.137 33.44-18.273 0-33.138-15.004-33.138-33.44" style="fill:#ed1c24;fill-opacity:1;fill-rule:nonzero;stroke:none;stroke-width:.0352778"/><path d="M49.997 58.635c.042.734.458 1.605.839 2.205l.54-.025c-.48-.663-.785-1.725-.788-2.303l-.59.123m4.025 1.81c.673.642 1.051.984 2.597 1.916l.772-.223c-2.118-1.153-2.467-1.506-2.734-1.845l-.635.152m-2.127.363c.676.639 1.59 1.574 2.511 2.022l.896-.085c-.848-.346-2.086-1.298-2.718-2.004l-.689.067m.213 2.258.762-.021c-.934-.653-1.544-1.291-1.88-2.19l-.422-.012c-.381.11.533 1.591 1.54 2.223m-1.637-.152.494.088c-1.413-1.227-1.472-1.838-1.525-2.194h.312c-.473-.649-.841-1.485-.848-2.064l-.536.053c.044.73.425 1.415.8 2.015l.148-.004-.161.02c-.351-.13-.24.805.942 1.888a32.28 32.28 0 0 1-1.77-1.02 2.352 2.352 0 0 1-.35-.945l-.054-.01.359.042c-.572-.71-.692-1.125-.854-1.993h-.457c.186.938.437 1.337.81 1.922l-.153-.028c-.156-.028-.16.208-.05.533-.33-.222-.657-.448-.98-.677a1.501 1.501 0 0 1-.002-.043l-.064-.007c-.016-.01-.033-.024-.049-.035l.345.028c-.476-.652-.594-1.108-.705-1.75l-.397-.088c.225.917.291 1.175.622 1.711-.348-.257-.69-.518-1.028-.79a6.191 6.191 0 0 1-.356-.995l-.365-.095c.067.286.124.48.178.635.006.01.013.018.02.025a30.615 30.615 0 0 1-4.186-4.272c-.354-.445-.696-.9-1.025-1.362l.736-1.415-1.832-.236a29.862 29.862 0 0 1-4.35-13.392c-.6-7.828 1.874-15.2 6.41-20.951a29.896 29.896 0 0 0-3.82 17.088c.799 10.298 6.732 19.001 15.123 23.838.066.744.323 1.725.677 2.279l.616-.05c-.316-.43-.525-1.238-.636-1.863.613.336 1.24.646 1.876.939.085.194.174.37.262.508l.594-.124-.009-.01c.748.317 1.509.603 2.284.86.373.237.763.46 1.144.646l.457-.166a30.63 30.63 0 0 0 10.44.978 30.632 30.632 0 0 0 21.437-11.194 30.659 30.659 0 0 1-26.441 15.078 30.662 30.662 0 0 1-14.083-3.401" style="fill:#dedede;fill-opacity:1;fill-rule:nonzero;stroke:none;stroke-width:.0352778"/><path d="M57.518 60.974a30.66 30.66 0 0 0 1.6.48l-.456.166c-.381-.187-.77-.41-1.144-.646M54.023 60.445l.635-.152c.267.339.616.692 2.734 1.845l-.772.223c-1.546-.932-1.924-1.274-2.597-1.916M51.896 60.808l.689-.067c.632.706 1.87 1.658 2.718 2.004l-.896.085c-.92-.448-1.835-1.383-2.51-2.022M50.569 60.844l.422.01c.336.9.946 1.538 1.88 2.19l-.762.022c-1.007-.631-1.921-2.113-1.54-2.222M50.472 62.914c-.125-.067-.25-.13-.374-.197-1.183-1.083-1.293-2.018-.942-1.888l.16-.02h.125c.053.356.112.966 1.525 2.194l-.494-.089M47.58 61.218c-.11-.325-.107-.561.049-.533l.153.028c.003.007.006.01.009.014l.134.014.053.01c.039.265.117.569.35.946a45.222 45.222 0 0 1-.748-.48M54.387 59.74c.28.13.563.253.847.373l.009.01-.594.124a3.787 3.787 0 0 1-.262-.508M51.854 58.434c.217.124.437.247.657.367.11.624.32 1.432.636 1.863l-.616.05c-.354-.555-.611-1.536-.677-2.28M49.997 58.635l.591-.123c.003.578.308 1.64.787 2.303l-.54.025c-.38-.6-.796-1.471-.838-2.205" style="fill:#a5a4a4;fill-opacity:1;fill-rule:nonzero;stroke:none;stroke-width:.0352778"/><path d="m48.369 58.797.536-.052c.007.578.375 1.414.848 2.063l-.584.004c-.375-.6-.756-1.284-.8-2.014M47.79 60.727c-.377-.593-.631-.991-.818-1.937h.457c.162.868.282 1.285.854 1.994l-.492-.057M46.484 60.456a3.31 3.31 0 0 0-.135-.1c-.33-.535-.397-.793-.622-1.71l.397.088c.111.642.229 1.097.705 1.75l-.345-.028M46.533 60.49l.064.008.003.042c-.023-.017-.045-.032-.067-.05M44.798 59.136c-.007-.007-.014-.014-.02-.025a6.179 6.179 0 0 1-.178-.635l.365.096c.093.328.195.656.356.994-.175-.14-.35-.285-.523-.43" style="fill:#a5a4a4;fill-opacity:1;fill-rule:nonzero;stroke:none;stroke-width:.0352778"/><path d="M40.612 54.864a30.663 30.663 0 0 0 23.943 11.451 30.659 30.659 0 0 0 26.44-15.078c.108-.13.214-.264.319-.395a30.654 30.654 0 0 1-24.346 15.452c-.808.063-1.61.092-2.407.092a30.649 30.649 0 0 1-23.949-11.522" style="fill:#cf181f;fill-opacity:1;fill-rule:nonzero;stroke:none;stroke-width:.0352778"/><path d="M124.33 26.532s-2.926-5.14-10.84-4.692c-2.099.12-3.296.554-4.954 1.087 0 0-10.676-2.342-17.4 4.202-1.369-1.845-4.199-3.532-10.04-3.066-.746.063-5.514.55-9.303 3.094 0 0-4.521-1.648-10.196-1.591 0 0-5.603-.117-11.345 2.254 7.462-5.108 11.544-11.751 13.284-14.813L.002 19.276c-.134 12.88 7.47 18.944 10.696 21.308 0 0-.516-4.643.555-8.774l6.867-.448L6.295 62.533c10.487-3.721 21.418-7.267 33.338-10.149l-1.74 3.126c3.247 1.312 6.6 1.848 9.17 1.887 15.695.261 19.572-11.762 19.572-11.762l.48-1.301c1.833 1.746 4.278 2.427 6.99 2.41 5.875-.043 11.22-2.876 11.22-2.876l-.38 1.168L98.26 43.84l.995-3.147c1.333 1.538 4.743 3.588 10.901 3.013 7.382-.692 10.937-4.918 11.154-9.123.002-.092.006-.194.006-.31 0-.89-.174-2.417-1.28-3.793l4.295-3.948" style="fill:#151a2b;fill-opacity:1;fill-rule:nonzero;stroke:none;stroke-width:.0352778"/><path d="M90.655 30.872 87.315 41l7.957-.688 3.092-9.37c.699-2.074 4.788-1.788 4.83-1.788l.662.049 1.978-5.253s-5.262-.787-9.991 1.348c-1.45.649-3.008 1.739-4.07 3.231-.728 1.006-1.118 2.343-1.118 2.343M59.873 26.963c-1.854.084-11.23.854-13.526 6.67-.831 2.096-1.64 4.552-2.055 5.84-.539 1.548-.5 2.398-.5 2.398-.033 3.027 2.74 3.754 2.74 3.754s2.757 1.23 7.864-.558c0 0-1.428 3.32-6.486 3.197-1.575-.04-2.834-.304-3.793-.72l-3.314 5.094s2.194.829 6.093.96c4.126.14 7.305-.89 9.712-2.294 2.092-1.157 3.615-2.695 4.698-4.162 0 0 .953-1.16 1.92-3.419.283-.666.532-1.404.834-2.272l4.696-13.529s-3.357-1.21-8.883-.96zm-3.275 12.305c-2.008.663-3.54.751-3.844.656 0 0-.25-.035-.117-.399l1.755-5.034c.405-1.118 1.448-1.658 2.103-1.894 1.04-.413 2.548-.367 2.548-.367l-2.445 7.038M89.057 30.942s.462-1.52-.2-2.819c-.761-1.488-2.731-3.231-8.329-2.783-.287.021-5.495.476-8.885 3.246 0 0-1.842 1.39-2.756 4.222-.698 1.94-1.266 3.715-1.266 3.715-1.467 4.258 1.932 5.69 1.932 5.69.936.463 2.431.79 4.35.787 7.265-.01 11.722-3.588 13.066-4.847l-2.826-2.71c4.169-1.386 4.914-4.5 4.914-4.5" style="fill:#fff;fill-opacity:1;fill-rule:nonzero;stroke:none;stroke-width:.0352778"/><path d="M116.288 37.363c1.12-1.14 1.726-2.65 1.79-4.011 0 0 .372-2.936-3.171-3.976-1.62-.48-3.59-.441-3.623-.988 0 0-.075-.582 1.502-.483.832.05 2 .448 3.008 1.333l4.564-4.208s-1.944-2.42-7.274-2.04c-8.334.597-9.312 5.476-9.386 6.333 0 0-.235 1.803 1.117 3.048 1.646 1.52 4.472 1.482 4.472 1.482 1.285.024 1.55.377 1.55.377-.486.628-1.55.818-2.599.71-1.994-.198-3.433-1.493-3.433-1.493l-4.822 3.838c2.658 2.66 6.152 2.861 7.945 2.872 6.01.014 8.36-2.794 8.36-2.794" style="fill:#fff;fill-opacity:1;fill-rule:nonzero;stroke:none;stroke-width:.0352778"/><path d="M92.391 28.755c3.381-4.71 11.166-4.28 11.717-4.237l-1.136 3.277c-.358-.028-4.967-.331-5.932 2.55l-2.834 8.676-5.692.49 2.702-8.28s.427-1.446 1.175-2.476M57.085 39.793l3.1-8.928s-2.078-.191-3.867.282c-.75.2-2.57.843-3.236 2.702l-1.757 5.038c-.2.575-.154 1.016.124 1.305.87.9 3.814.166 5.493-.35l.143-.049zm-9.74-6.738c.269-.472.622-.98 1.075-1.443 3.395-3.464 10.23-3.884 11.13-3.926 4.377-.208 7.149.512 7.531.62-.026.078-4.657 13.4-4.657 13.4-.012.042-1.161 3.848-3.625 6.11-3.008 2.998-7.055 4.49-12.035 4.437-.027 0-2.58-.074-4.436-.677.053-.085 2.02-3.143 2.056-3.193.148.06 1.251.42 3.314.516 2.023.091 5.523-.29 7.343-3.581.52-1.048.846-2.032.846-2.032-1.265.41-4.54 1.369-7.262 1.333-1.726-.017-2.925-.451-3.555-1.277-.346-.455-.52-1.033-.52-1.725 0 0-.027-.804.53-2.462.32-.96.852-2.544 1.503-4.315 0 0 .316-.949.762-1.785" style="fill:#ed1c24;fill-opacity:1;fill-rule:nonzero;stroke:none;stroke-width:.0352778"/><path d="M77.198 36.565c1.823.018 3.358-.275 4.49-.532-.9.476-2.673 1.361-5.07 1.428-.883.025-1.19-.123-1.27-.183.002-.025.012-.063.02-.116.007-.018.165-.49.226-.66.48.046 1.007.07 1.604.063" style="fill:#151a2b;fill-opacity:1;fill-rule:nonzero;stroke:none;stroke-width:.0352778"/><path d="M109.359 35.528c2.276-.278 2.251-1.675 2.245-1.799-.172-.991-2.12-1.009-2.203-1.012-2.215-.13-3.73-.706-4.504-1.7a2.463 2.463 0 0 1-.507-1.888c.004-.053.383-4.833 8.34-5.493 4.217-.31 5.726 1.147 5.743 1.16-.034 0-3.128 2.862-3.128 2.862-1.2-.917-2.963-.879-3.163-.872-1.766.134-2.211 1.02-2.195 1.475.015.487.315 1.097 2.563 1.295 3.021.264 4.451 1.376 4.352 3.298-.142 2.706-2.667 5.585-7.994 5.923-5.085.335-7.416-1.912-7.44-1.93l3.36-2.645c2.156 1.601 4.52 1.337 4.53 1.326" style="fill:#ed1c24;fill-opacity:1;fill-rule:nonzero;stroke:none;stroke-width:.0352778"/><path d="M28.579 50.839c3.38-.96 6.838-1.877 10.387-2.741l6.64-19.079-9.679.657-7.348 21.163" style="fill:#fff;fill-opacity:1;fill-rule:nonzero;stroke:none;stroke-width:.0352778"/><path d="m57.197 15.057-55.94 5.468c.058 9.228 5.329 13.98 6.585 15.08 0 0-.856-3.728.282-8.41l13.352-.867L9.88 56.74a333.342 333.342 0 0 1 14.965-4.802l9.162-26.416 12.95-.87c6.105-4.068 9.013-7.826 10.24-9.596" style="fill:#fff;fill-opacity:1;fill-rule:nonzero;stroke:none;stroke-width:.0352778"/><path d="M53.885 16.394 2.178 21.357c.298 6.978 3.81 11.166 4.577 11.952 0 0-.742-4.053.071-7.694l16.343-1.058L11.973 54.03a358.613 358.613 0 0 1 11.485-3.658l9.23-26.423h.054l13.345-.875c4.496-3.073 6.633-5.228 7.803-6.681h-.005" style="fill:#ed1c24;fill-opacity:1;fill-rule:nonzero;stroke:none;stroke-width:.0352778"/><path d="m36.45 30.297 7.156-.487-5.902 17.004a295.25 295.25 0 0 0-7.67 2l6.415-18.517M87.206 27.672c-1.102-1.348-3.44-1.891-6.949-1.609-.233.018-4.085.37-7.102 2.163 0 0-.7.423-1.402 1.058 0 0-1.32 1.125-2.021 3.034-.98 2.642-1.555 4.579-1.555 4.579-.376 1.397-.264 2.36.355 3.147 1.239 1.573 4.294 1.654 4.978 1.647 7.122.014 11.539-3.824 11.539-3.824l-2.027-1.87c-.237.16-3.191 2.064-6.775 2.068-1.307.017-1.832-.328-2.04-.625-.178-.24-.176-.5-.09-.868.168-.571.49-1.382.49-1.382.678.123 1.494.155 2.209.144 10.256-.137 10.975-5.196 10.975-5.196.004-.014.347-1.33-.585-2.466zm-5.062 2.787c-.085 1.072-1.488 1.686-2.964 1.87 0 0-1.502.229-3.533.049 0 0 .041-.13.12-.339a3.92 3.92 0 0 1 .984-1.52c.56-.536 1.452-1.157 2.945-1.291 2.613-.233 2.448 1.23 2.448 1.23" style="fill:#ed1c24;fill-opacity:1;fill-rule:nonzero;stroke:none;stroke-width:.0352778"/><path d="M80.03 30.346c.961-.053 1.38.293 1.463.374-.142.226-.858 1.005-2.844 1.157-.503.042-.938.028-1.304.032.177-.297.772-1.44 2.685-1.563" style="fill:#151a2b;fill-opacity:1;fill-rule:nonzero;stroke:none;stroke-width:.0352778"/><path d="M34.7 60.198c.49.695.572.956.61 1.274.069.525-.145.984-.594 1.301-.517.367-1.116.399-1.634.092-.218-.13-.388-.275-.708-.727l-.32-.455-1.438 1.013-.582-.826 3.903-2.752zm-2.005 1.034.303.43c.238.335.348.41.59.406.156-.004.289-.053.475-.184.364-.257.438-.62.193-.966l-.371-.526-1.19.84M38.817 65.14c.62.621.634 1.426.047 2.011-.502.501-1.265.565-1.707.141a.958.958 0 0 1 .006.286c-.04.441-.46 2.141-.46 2.141l-.832-.836c.086-.356.122-.504.222-.875.254-.948.312-1.22.24-1.4a.496.496 0 0 0-.083-.138l-1.397 1.394-.691-.695 3.348-3.337zm-2.06.826.235.236c.304.304.463.406.641.42a.63.63 0 0 0 .475-.197c.206-.209.265-.438.157-.66a1.89 1.89 0 0 0-.35-.452l-.254-.25-.905.903M43.745 72.094c-.612.86-1.383 1.287-2.181 1.178-.33-.046-.591-.155-.926-.395-.605-.43-.887-.864-.921-1.46-.04-.593.145-1.186.543-1.747.585-.825 1.381-1.249 2.172-1.143.323.046.664.19.964.402 1.068.755 1.198 1.965.349 3.165zm-1.641-2.685c-.315.148-.616.437-.943.9-.468.66-.645 1.153-.52 1.488.065.18.194.339.386.473.558.395 1.083.159 1.774-.815.277-.391.441-.695.524-.96a.884.884 0 0 0-.36-.98c-.272-.194-.603-.23-.861-.106M51.598 73.459c.544.212.796.399.977.73.17.304.19.593.072.896-.111.286-.305.49-.573.59-.175.066-.266.08-.495.063.492.363.686.854.47 1.407-.226.586-.82.985-1.617.72a10.133 10.133 0 0 1-.575-.208l-1.4-.543 1.636-4.237zm-1.276 1.453.531.208c.212.082.315.1.406.096.145-.014.332-.173.399-.346.067-.176.044-.402-.091-.526a.992.992 0 0 0-.352-.197l-.518-.201zm-.7 1.852.581.226c.187.074.33.099.454.064a.668.668 0 0 0 .422-.402c.093-.244.05-.516-.126-.646a1.128 1.128 0 0 0-.332-.17l-.556-.215-.444 1.143M57.515 75.025l.665 4.604-.983-.173-.14-1.086-1.336-.237-.504.97-.958-.165 2.267-4.09zm-.552 2.58s-.07-.48-.095-.918c-.01-.208-.047-.801-.047-.801s-.222.49-.365.797c-.14.297-.235.494-.385.766l.892.155M63.458 76.55c-.387-.237-.68-.332-1.002-.336-.353-.004-.603.194-.607.48-.003.219.114.328.473.43l.52.148c.704.198 1.083.646 1.077 1.274-.012.86-.725 1.418-1.798 1.404a3.162 3.162 0 0 1-1.467-.399l.33-.663c.402.212.746.353 1.18.356.498.007.761-.19.764-.568.005-.275-.171-.448-.556-.557l-.477-.134c-.425-.12-.691-.286-.843-.547a1.188 1.188 0 0 1-.173-.645c.011-.773.65-1.302 1.562-1.292.527.007 1.059.17 1.435.445l-.418.603M68.8 75.223l-.03.712-1.529.184.12.984 1.275-.155.086.695-1.266.155.137 1.136 1.688-.205.087.734-2.596.314-.511-4.247 2.539-.307M72.73 74.408c.528-.13.819-.124 1.136.032.294.14.464.349.537.645a.913.913 0 0 1-.12.755.852.852 0 0 1-.344.31c.57.018.981.283 1.116.823.143.568-.099 1.192-.847 1.418-.134.042-.313.088-.549.148l-1.359.342-1.026-4.106zm-.189 1.796.515-.131c.204-.05.292-.092.357-.145.104-.088.16-.31.12-.476-.043-.173-.182-.332-.351-.353a.94.94 0 0 0-.376.04l-.5.123zm.46 1.788.564-.145c.18-.045.305-.098.38-.194a.63.63 0 0 0 .106-.532c-.061-.24-.24-.42-.444-.427-.113 0-.182.01-.345.05l-.539.133.278 1.115M78.07 72.471l2.901 3.225-.853.377-.669-.773-1.16.508.113 1.016-.828.367-.364-4.342zm.908 2.286s-.304-.339-.547-.66a74.33 74.33 0 0 0-.452-.596s.082.49.13.805c.047.303.073.504.097.793l.773-.342M81.915 70.453l1.801 2.868 1.296-.815.232.66-1.912 1.2-2.163-3.447.746-.466M85.634 67.87l2.101 2.576 1.16-.952.304.614-1.711 1.397-2.524-3.087.67-.547M92.056 62.41a1.138 1.138 0 0 0-.57.391.87.87 0 0 0-.153.759c.08.265.3.515.661.79.426.325.69.47.936.498.329.042.612-.081.829-.364.147-.194.226-.405.223-.712h.623c.004.412-.115.755-.399 1.129-.343.448-.747.691-1.24.737-.483.05-.96-.106-1.415-.452-.389-.296-.644-.6-.8-.956a1.772 1.772 0 0 1 .232-1.795c.246-.328.591-.575.874-.642l.199.617M93.404 59.323l2.673 1.68.758-1.207.461.455-1.12 1.781-3.211-2.017.439-.692M95.552 55.824l2.189 1.03c.204.095.335.13.425.127.185-.01.345-.141.454-.374.144-.304.094-.568-.136-.713-.069-.046-.117-.067-.294-.148l-2.13-1.002.33-.716 2.247 1.055c.315.148.373.183.495.3.219.215.425.73.07 1.481-.25.533-.587.854-.974.914-.225.035-.375.007-.698-.145l-2.318-1.09.34-.72M97.728 50.32c.147-.427.284-.628.535-.78a.757.757 0 0 1 .695-.084c.226.078.39.226.476.427.056.134.07.208.063.384.27-.391.642-.557 1.083-.405.46.155.788.606.605 1.234-.032.113-.08.261-.145.452l-.38 1.104-3.341-1.146zm1.17.95.14-.42c.058-.17.069-.248.063-.318-.016-.113-.147-.25-.28-.3-.14-.046-.314-.021-.406.085a.774.774 0 0 0-.143.282l-.142.406zm1.457.49.157-.463c.05-.144.068-.257.037-.352a.525.525 0 0 0-.326-.318c-.195-.063-.401-.025-.498.117a.914.914 0 0 0-.12.264l-.153.441.903.31" style="fill:#fff;fill-opacity:1;fill-rule:nonzero;stroke:none;stroke-width:.0352778"/></svg>