<svg xmlns="http://www.w3.org/2000/svg" width="2253.3333" height="1078.108" viewBox="0 0 2253.3333 1078.108"><defs><clipPath id="a" clipPathUnits="userSpaceOnUse"><path d="M0 808.581h1690V0H0Z"/></clipPath></defs><g clip-path="url(#a)" transform="matrix(1.33333 0 0 -1.33333 0 1078.108)"><path d="M0 0c-12.784-20.127-30.733-33.325-49.485-45.757-31.892-21.141-63.617-42.534-95.994-64.21l-65.473 74.105-129.036-112.839c-17.028 20.019-33.713 39.593-50.345 59.211-5.579 6.582-10.404 13.94-16.658 19.782-12.346 11.533-11.53 24.324-6.255 38.605 22.116 59.878 43.965 119.856 65.916 179.795 2.536 6.924 5.347 13.76 7.597 20.775 5.168 16.118 1.338 26.395-13.077 36.187-1.427.97-2.776 2.057-5.414 4.025l177.248 21.675c-17.26-10.821-34.844-20.503-50.742-32.431-6.991-5.245-12.144-14.448-15.406-22.905-20.49-53.107-40.674-106.345-59.8-159.954-3.87-10.848-4.552-23.626-3.508-35.227 1.201-13.347 12.601-20.126 24.035-24.998 2.392-1.019 6.575.564 9.265 2.109 14.833 8.52 22.564 22.757 28.066 37.997 21.325 59.059 42.846 118.064 62.839 177.578 7.518 22.381 19.582 36.197 43.663 39.222 20.845 2.619 41.507 6.701 63.603 10.36-.736-3.565-1.011-6.437-1.923-9.09-20.384-59.287-39.294-119.146-61.871-177.588-13.056-33.797-1.846-58.314 19.635-82.804 15.749 10.942 25.101 26.384 31.447 43.299 9.902 26.393 17.999 53.457 27.584 79.975 13.038 36.068 26.8 71.874 40.144 107.832 2.174 5.858 4.237 11.823 5.584 17.909 3.179 14.372-.105 21.323-13.697 27.232-8.572 3.726-17.758 6.027-26.636 9.062-3.49 1.193-6.891 2.644-9.913 6.705l177.275 21.894c-37.49-41.371-41.737-93.076-60.583-138.446C30.594 86.977 16.208 43.579 0 0" style="fill:#030302;fill-opacity:1;fill-rule:nonzero;stroke:none" transform="translate(1162.367 344.999)"/><path d="M0 0c17.724-51.482 56.419-68.902 106.348-68.763 10.391.029 20.783.004 31.175.004l.474-4.421c-9.038-1.66-18.012-3.948-27.125-4.872C70.274-82.17 30.048-80.985-7.975-64.213c-37.469 16.528-65.241 42.74-71.551 84.947-3.405 22.78-1.293 46.334-3.525 69.359-1.377 14.204-4.817 28.616-9.911 41.95-6.34 16.595-17.347 18.711-34.082 12.959-19.924-6.847-31.098-18.626-37.598-39.42-12.413-39.708-28.788-78.161-42.629-117.448-4.735-13.441-12.177-23.743-24.727-29.766-25.484-12.229-51.256-23.859-77.711-36.108 9.981 28.265 19.902 56.417 29.862 84.556 24.858 70.226 49.933 140.378 74.524 210.698 13.248 37.884 8.913 53.126-22.493 81.146l152.666 18.939c-36.99-43.47-47.452-97.344-67.147-147.732 1.831-.396 3.121-1.139 3.896-.777 58.83 27.422 108.089 66.273 142.467 122.012 6.761 10.963 9.83 24.203 15.296 38.168l124.125 15.406C81.159 271.661 6.832 219.171-76.855 173.971c11.212-2.442 19.494-3.76 27.49-6.071 37.103-10.725 53.774-38.652 45.859-76.502C-9.872 60.95-9.559 30.774 0 0" style="fill:#030302;fill-opacity:1;fill-rule:nonzero;stroke:none" transform="translate(309.709 167.654)"/><path d="M0 0c6.06 15.324 12.208 29.683 16.969 44.488 2.224 6.913 6.353 9.307 12.484 10.036 41.533 4.938 83.086 9.705 124.61 14.714 22.118 2.667 44.177 5.815 66.291 8.515 7.368.9 14.824 1.08 24.764 1.762-12.093-17.263-22.752-32.851-33.786-48.169-53.457-74.215-107.129-148.277-160.379-222.64-6.022-8.409-10.786-18.029-14.448-27.724-3.339-8.838.928-13.022 10.403-12.305 33.87 2.562 61.445 18.846 86.84 39.872 3.621 2.998 7.198 6.051 10.863 8.994.833.669 1.946.988 4.52 2.242-.695-3.165-.696-5.204-1.554-6.774-10.274-18.803-20.432-37.679-31.26-56.161-2.029-3.464-6.598-6.975-10.459-7.602-69.146-11.237-138.363-22.032-209.745-33.265 9.873 13.329 18.96 25.165 27.595 37.323C-17.45-163.842 41.296-80.921 100.074 1.977c3.385 4.774 6.828 9.508 10.16 14.318 6.891 9.949 2.511 21.166-9.285 19.964-15.993-1.63-32.714-4.552-47.106-11.252C37.148 17.235 22.588 4.841 7.221-5.721c-3.09-2.123-5.641-5.03-10.457-6.534C-2.317-8.431-1.398-4.606 0 0" style="fill:#030302;fill-opacity:1;fill-rule:nonzero;stroke:none" transform="translate(1444.882 583.459)"/><path d="M0 0c32.061 4.076 63.065 8.095 98.112 12.638C87.981-3.31 81.284-18.273 70.501-29.21c-6.725-6.82-19.44-8.292-29.795-10.817-10.206-2.489-20.784-3.737-31.275-4.709-15.872-1.47-23.98-10.984-28.844-25.081-24.65-71.446-50.616-142.463-73.813-214.376-13.094-40.594-33.647-73.962-71.726-94.299-15.263-8.151-31.94-13.654-47.973-20.363l-2.325 2.939c7.033 20.255 13.986 40.538 21.112 60.76 30.329 86.074 60.735 172.121 91.046 258.202 5.369 15.247 3.5 17.596-11.798 15.66-24.866-3.148-49.719-6.397-74.598-9.428-5.37-.655-10.831-.568-17.906-.9 15.488 16.987 28.658 34.124 44.736 47.854 7.323 6.253 20.263 6.809 30.882 8.165C-88.251-10.047-44.638-5.178 0 0" style="fill:#030302;fill-opacity:1;fill-rule:nonzero;stroke:none" transform="translate(646.005 535.064)"/><path d="M0 0c94.558 12.885 188.082 25.66 281.607 38.434l1.237-4.282c-10.567-8.072-21.748-15.469-31.553-24.381-13.609-12.37-25.887-26.199-39.38-38.708-4.195-3.889-10.318-7.432-15.835-7.903C97.137-45.285-1.948-52.161-100.786-61.618c-82.211-7.866-164.353-17.13-246.144-28.52-94.079-13.101-187.738-29.224-281.583-44.01-1.542-.243-3.134-.225-4.704-.233-4.234-.022-8.468.008-12.702.017 3.78 2.294 7.289 5.764 11.381 6.71 105.623 24.433 210.972 50.209 317.086 72.311 84.88 17.68 170.687 30.926 256.119 45.936C-41.307-5.888-21.137-3.187 0 0" style="fill:#030302;fill-opacity:1;fill-rule:nonzero;stroke:none" transform="translate(1313.889 244.679)"/><path d="M0 0c13.818 35.296 27.559 69.729 40.301 104.528 22.368 61.086 44.297 122.334 65.971 183.669 3.734 10.569 6.331 21.796 7.506 32.924.798 7.558 3.944 10.607 10.489 11.38 25.564 3.019 51.147 5.877 78.498 8.998-9.121-25.709-17.855-50.11-26.439-74.564-26.96-76.803-53.554-153.738-81.161-230.307C91.516 26.504 84.5 16.082 76.144 9.453c-24.891-19.746-54.002-28.236-87.501-26.81C-7.143-10.875-3.835-5.787 0 0" style="fill:#030302;fill-opacity:1;fill-rule:nonzero;stroke:none" transform="translate(1204.387 286.217)"/><path d="M0 0c47.852 10.579 79.302 42.023 102.468 83.778-2.83-40.557 5.86-73.364 53.304-82.245C98.116-9.143 68.42-49.656 46.5-101.895c0 19.218.456 33.803-.105 48.35C45.513-30.692 31.284-11.11 6-2c-2.521.908-3 1-6 2" style="fill:#ed1b23;fill-opacity:1;fill-rule:nonzero;stroke:none" transform="translate(480 101.895)"/><path d="M0 0c3.242 30.048-14.055 42.247-39.58 48.67C7.592 59.98 37.529 90.848 60.994 132.251c-9.179-37.104-5.752-67.226 38.265-76.476C37.721 33.854 36.201 27.469-2.211-28.144-1.411-18.363-.706-9.735 0 0" style="fill:#ed1b23;fill-opacity:1;fill-rule:nonzero;stroke:none" transform="translate(1363.686 676.33)"/></g></svg>